<svg width="20" height="14" viewBox="0 0 20 14" fill="none" xmlns="http://www.w3.org/2000/svg">
<path d="M0.25 0.25V13.75H7.75V12.25H1.75V2.40186L10 7.90088L18.25 2.40186V7.75H19.75V0.25H0.25ZM3.47705 1.75H16.5229L10 6.09912L3.47705 1.75ZM18.4111 9.53418C18.4111 9.53418 17.8414 10.2532 17.1162 10.9639C16.7536 11.3192 16.3536 11.6692 15.9971 11.9102C15.6517 12.1436 15.3578 12.2337 15.2734 12.2397C15.267 12.1817 15.25 12.0939 15.25 11.875C15.25 11.5938 15.286 11.2339 15.0918 10.7969C14.8976 10.3598 14.3125 10 13.75 10C13.2195 10 12.8055 10.2029 12.3569 10.438C11.9083 10.6731 11.4542 10.9685 11.0371 11.2612C10.2028 11.8466 9.5166 12.4272 9.5166 12.4272L10.4834 13.5728C10.4834 13.5728 11.1294 13.0284 11.8984 12.4888C12.283 12.219 12.6978 11.9519 13.0542 11.7651C13.3986 11.5846 13.694 11.514 13.7266 11.5088C13.7329 11.5662 13.75 11.6553 13.75 11.875C13.75 12.1562 13.714 12.5161 13.9082 12.9531C14.1024 13.3902 14.6875 13.75 15.25 13.75C15.8666 13.75 16.3607 13.4739 16.8364 13.1523C17.3122 12.8308 17.7637 12.4308 18.1665 12.0361C18.972 11.2468 19.5889 10.4658 19.5889 10.4658L18.4111 9.53418Z" fill="#CCBEE3"/>
</svg>
