<svg width="23" height="16" viewBox="0 0 23 16" fill="none" xmlns="http://www.w3.org/2000/svg">
<path d="M0.0029406 7.85106C0.00802663 7.87904 0.0156547 7.90701 0.0232834 7.93244C0.0919404 8.23503 0.364025 8.44863 0.674252 8.44101H19.8982L13.9174 14.4218C13.7877 14.5438 13.7165 14.7117 13.714 14.8897C13.7165 15.1541 13.8767 15.3906 14.1234 15.4898C14.3675 15.5864 14.6497 15.5279 14.8328 15.3372L21.9325 8.25792L22.38 7.79004L21.9325 7.32215L14.8328 0.242862C14.6752 0.0496053 14.4234 -0.0393947 14.1793 0.0165483C13.9377 0.0724906 13.747 0.263204 13.6911 0.504775C13.6351 0.748889 13.7241 1.00063 13.9174 1.15829L19.8982 7.13907L0.674252 7.13907C0.486082 7.13144 0.30554 7.20772 0.178397 7.34249C0.0487124 7.47981 -0.0148595 7.66544 0.0029406 7.85106Z" fill="white"/>
</svg>
