<svg width="20" height="20" viewBox="0 0 20 20" fill="none" xmlns="http://www.w3.org/2000/svg">
<path d="M7 0.25C10.709 0.25 13.75 3.29102 13.75 7C13.75 7.38965 13.6855 7.73242 13.6328 8.07812L19.5391 13.9609L19.75 14.1953V19.75H14.5V17.5H12.25V15.25H10V13.0234C9.11523 13.457 8.08398 13.75 7 13.75C3.29102 13.75 0.25 10.709 0.25 7C0.25 3.29102 3.29102 0.25 7 0.25ZM7 1.75C4.1084 1.75 1.75 4.1084 1.75 7C1.75 9.8916 4.1084 12.25 7 12.25C7.9082 12.25 8.84277 11.9834 9.55469 11.5938L9.74219 11.5H11.5V13.75H13.75V16H16V18.25H18.25V14.8281L12.3203 8.875L12.0391 8.61719L12.1094 8.21875C12.1855 7.76758 12.25 7.36621 12.25 7C12.25 4.1084 9.8916 1.75 7 1.75ZM5.5 4C6.3291 4 7 4.6709 7 5.5C7 6.3291 6.3291 7 5.5 7C4.6709 7 4 6.3291 4 5.5C4 4.6709 4.6709 4 5.5 4Z" fill="#CCBEE3"/>
</svg>
