<svg width="43" height="42" viewBox="0 0 43 42" fill="none" xmlns="http://www.w3.org/2000/svg">
<path d="M43 7.2537C43 4.65618 40.8364 2.54297 38.177 2.54297H37.2959C35.0725 2.54297 32.9189 3.239 31.1417 4.51804C28.596 3.25656 25.1422 2.54297 21.5 2.54297C17.9051 2.54297 14.4802 3.25689 11.9395 4.51902C10.1645 3.25525 7.93896 2.54297 5.70405 2.54297H4.82289C2.16352 2.54297 0 4.65618 0 7.2537C0 8.51197 0.501639 9.69495 1.41262 10.5847L5.26028 14.274L2.60352 18.1665V25.6189C2.60352 30.7098 6.13506 35.1277 11.1915 36.3625L13.2973 36.8767L15.9391 39.457H27.1448L29.7867 36.8767L31.8924 36.3625C36.9489 35.1278 40.4805 30.7099 40.4805 25.6189V18.1666L37.8183 14.2661L41.5874 10.5847C42.4983 9.69503 43 8.51205 43 7.2537ZM39.8058 8.84461L36.6962 11.8819C36.6447 11.0421 36.9509 10.1916 37.5919 9.56542L35.8103 7.82529C33.9273 9.66459 33.6326 12.5704 35.1099 14.7346L37.0432 17.5672C35.1444 18.9938 32.8233 19.7695 30.4023 19.7695V22.2305C33.1254 22.2305 35.7458 21.4326 37.9609 19.9553V22.8383C36.6864 23.5106 35.3261 24.0073 33.9073 24.3164L34.4559 26.7183C35.6649 26.4549 36.8374 26.074 37.9609 25.5812V25.6189C37.9609 29.5785 35.2141 33.0146 31.2813 33.975L28.4984 34.6545L26.1013 36.9961H16.9827L14.5855 34.6546L11.8027 33.975C7.86984 33.0147 5.12305 29.5785 5.12305 25.6189V25.5813C6.24651 26.074 7.41901 26.4549 8.62805 26.7184L9.17664 24.3165C7.75797 24.0073 6.39768 23.5106 5.12305 22.8383V19.9553C7.3383 21.4326 9.95862 22.2305 12.6816 22.2305V19.7695C10.2608 19.7695 7.93955 18.9938 6.04066 17.5672L7.97406 14.7345C9.45118 12.5703 9.15665 9.66451 7.27355 7.82521L5.49199 9.56534C6.13901 10.1974 6.44538 11.0581 6.38659 11.9055L3.1909 8.84133C2.75788 8.41673 2.51953 7.85318 2.51953 7.2537C2.51953 6.01314 3.55279 5.00391 4.82289 5.00391H5.70405C7.64132 5.00391 9.56389 5.70125 10.9788 6.91728L11.6703 7.51168L12.4598 7.04821C14.4074 5.90494 17.1929 5.19102 20.2402 5.03606V7.49733C16.3442 7.69921 12.7656 8.85314 12.7656 11.1562H15.3875C15.877 10.7639 17.524 10.1203 20.2402 9.96212V12.3867H22.7598V9.96122C25.5108 10.1165 27.2123 10.755 27.755 11.1562H30.4023C30.4023 8.84846 26.7401 7.69445 22.7598 7.49602V5.03655C25.8305 5.1943 28.7043 5.9211 30.6241 7.04812L31.4136 7.5116L32.1051 6.9172C33.5409 5.68345 35.3843 5.00391 37.2959 5.00391H38.177C39.4471 5.00391 40.4805 6.01314 40.4805 7.2537C40.4805 7.85466 40.2409 8.41969 39.8058 8.84461Z" fill="#745F9A"/>
<path d="M25.3633 15.3176V22.2305H17.7207V15.3176L11.9852 12.5166L10.8585 14.7177L15.2012 16.8387V21.4443C12.1541 22.8558 10.1621 25.8792 10.1621 29.2254V30.8438H12.6816V29.2253C12.6816 27.2342 13.6692 25.4032 15.2566 24.2644C15.6065 26.8713 17.6319 28.9703 20.2402 29.4894V30.0833L15.8976 32.2041L17.0243 34.4052L21.5046 32.2172L26.0671 34.4089L27.179 32.2005L22.7598 30.0777V29.4916C23.9668 29.256 25.0828 28.6832 25.9857 27.8212C27.0075 26.8456 27.6441 25.6042 27.8267 24.264C29.4145 25.4027 30.4023 27.2338 30.4023 29.2253V30.8438H32.9219V29.2253C32.9219 25.8791 30.9299 22.8557 27.8828 21.4442V16.8386L32.2255 14.7177L31.0987 12.5166L25.3633 15.3176ZM21.5 27.1524C19.8576 27.1524 18.4565 26.123 17.9365 24.6906H25.1335C24.5899 26.1083 23.1453 27.1524 21.5 27.1524Z" fill="#745F9A"/>
</svg>
