<svg width="35" height="24" viewBox="0 0 35 24" fill="none" xmlns="http://www.w3.org/2000/svg">
<path d="M34.375 12.0605C34.3672 12.1035 34.3555 12.1465 34.3437 12.1855C34.2383 12.6504 33.8203 12.9785 33.3437 12.9668L3.8125 12.9668L13 22.1543C13.1992 22.3418 13.3086 22.5996 13.3125 22.873C13.3086 23.2793 13.0625 23.6426 12.6836 23.7949C12.3086 23.9433 11.875 23.8535 11.5938 23.5605L0.6875 12.6855L0 11.9668L0.6875 11.248L11.5938 0.37303C11.8359 0.0761547 12.2227 -0.060564 12.5977 0.0253735C12.9688 0.111311 13.2617 0.40428 13.3477 0.775373C13.4336 1.15037 13.2969 1.53709 13 1.77928L3.8125 10.9668L33.3437 10.9668C33.6328 10.9551 33.9102 11.0722 34.1055 11.2793C34.3047 11.4902 34.4023 11.7754 34.375 12.0605Z" fill="white"/>
</svg>
