<svg width="30" height="30" viewBox="0 0 30 30" fill="none" xmlns="http://www.w3.org/2000/svg">
<path d="M24 0C20.686 0 18 2.686 18 6C18 10.792 23 12 23 14C23 14.549 23.448 15 24 15C24.552 15 25 14.549 25 14C25 12 30 10.792 30 6C30 2.686 27.314 0 24 0ZM15 3C8.383 3 3 8.383 3 15C3 21.617 8.383 27 15 27C21.617 27 27 21.617 27 15C27 14.784 26.9797 14.5743 26.9688 14.3613C26.8218 15.5693 25.9594 16.547 24.8164 16.873C24.7434 17.256 24.6541 17.634 24.5391 18H20.8184C20.9324 17.045 21 16.046 21 15C21 14.72 20.9846 14.4517 20.9746 14.1777C20.7776 13.9427 20.3313 13.5567 19.9883 13.2617C19.6283 12.9517 19.2254 12.5991 18.8184 12.2051C18.9314 13.0871 19 14.019 19 15C19 16.055 18.9278 17.061 18.7988 18H11.2012C11.0732 17.061 11 16.055 11 15C11 13.945 11.0722 12.939 11.2012 12H18.6133C18.0603 11.44 17.5213 10.778 17.0703 10H11.5859C12.3449 6.961 13.722 5 15 5C15.341 5 15.6873 5.14816 16.0293 5.41016C16.0883 4.60416 16.2678 3.83333 16.5488 3.11133C16.0408 3.04633 15.526 3 15 3ZM24 4C25.105 4 26 4.895 26 6C26 7.105 25.105 8 24 8C22.895 8 22 7.105 22 6C22 4.895 22.895 4 24 4ZM11.0625 5.81055C10.3985 6.93855 9.86772 8.362 9.51172 10H6.35352C7.43052 8.146 9.0785 6.66455 11.0625 5.81055ZM5.46094 12H9.18164C9.06764 12.955 9 13.954 9 15C9 16.046 9.06764 17.045 9.18164 18H5.46094C5.16294 17.052 5 16.045 5 15C5 13.955 5.16294 12.948 5.46094 12ZM6.35352 20H9.51172C9.86772 21.638 10.3965 23.0615 11.0605 24.1895C9.07755 23.3355 7.43052 21.854 6.35352 20ZM11.5859 20H18.4141C17.6551 23.039 16.278 25 15 25C13.722 25 12.3449 23.039 11.5859 20ZM20.4863 20H23.6465C22.5705 21.854 20.9225 23.3355 18.9375 24.1895C19.6015 23.0615 20.1303 21.638 20.4863 20Z" fill="#745F9A"/>
</svg>
